<?xml version="1.0" encoding="UTF-8"?>
<!DOCTYPE svg PUBLIC "-//W3C//DTD SVG 1.1//EN" "http://www.w3.org/Graphics/SVG/1.1/DTD/svg11.dtd">
<svg xmlns="http://www.w3.org/2000/svg" version="1.1" width="100px" height="100px" style="shape-rendering:geometricPrecision; text-rendering:geometricPrecision; image-rendering:optimizeQuality; fill-rule:evenodd; clip-rule:evenodd" xmlns:xlink="http://www.w3.org/1999/xlink">
<g><path style="opacity:0.908" fill="#dbca87" d="M 46.5,3.5 C 59.9325,2.98097 64.7658,9.3143 61,22.5C 60.0168,24.4484 58.8502,26.2817 57.5,28C 60.4185,29.7088 63.2518,31.5421 66,33.5C 67.2525,36.0135 67.7525,38.6802 67.5,41.5C 56.8333,41.5 46.1667,41.5 35.5,41.5C 35.2475,38.6802 35.7475,36.0135 37,33.5C 39.7482,31.5421 42.5815,29.7088 45.5,28C 42.1319,24.5597 40.7986,20.393 41.5,15.5C 40.4781,10.2269 42.1448,6.22685 46.5,3.5 Z M 48.5,8.5 C 51.1667,9.16667 53.8333,9.83333 56.5,10.5C 55.9204,17.658 55.0871,24.658 54,31.5C 56.2336,33.6998 58.7336,35.5331 61.5,37C 54.8333,37.6667 48.1667,37.6667 41.5,37C 44.2664,35.5331 46.7664,33.6998 49,31.5C 49.6667,28.8333 49.6667,26.1667 49,23.5C 45.9792,18.5236 45.8125,13.5236 48.5,8.5 Z"/></g>
<g><path style="opacity:0.871" fill="#dcca87" d="M 32.5,17.5 C 34.1667,17.5 35.8333,17.5 37.5,17.5C 37.6567,18.8734 37.49,20.2068 37,21.5C 24.0695,27.7688 17.7362,38.1021 18,52.5C 16.6439,53.3802 15.1439,53.7135 13.5,53.5C 12.1129,37.2682 18.4463,25.2682 32.5,17.5 Z"/></g>
<g><path style="opacity:0.887" fill="#dcca87" d="M 65.5,17.5 C 76.9122,21.0823 84.0789,28.7489 87,40.5C 87.499,44.8206 87.6657,49.1539 87.5,53.5C 85.8561,53.7135 84.3561,53.3802 83,52.5C 83.3153,38.4857 77.3153,28.1523 65,21.5C 64.4209,20.0715 64.5876,18.7382 65.5,17.5 Z"/></g>
<g><path style="opacity:0.908" fill="#dbca87" d="M 16.5,55.5 C 29.9325,54.981 34.7658,61.3143 31,74.5C 30.0168,76.4484 28.8502,78.2817 27.5,80C 30.4185,81.7088 33.2518,83.5421 36,85.5C 37.2525,88.0135 37.7525,90.6802 37.5,93.5C 26.8333,93.5 16.1667,93.5 5.5,93.5C 5.24751,90.6802 5.74751,88.0135 7,85.5C 9.74821,83.5421 12.5815,81.7088 15.5,80C 12.1319,76.5597 10.7986,72.393 11.5,67.5C 10.4781,62.2269 12.1448,58.2269 16.5,55.5 Z M 18.5,60.5 C 21.1667,61.1667 23.8333,61.8333 26.5,62.5C 25.9204,69.658 25.0871,76.658 24,83.5C 26.2336,85.6998 28.7336,87.5331 31.5,89C 24.8333,89.6667 18.1667,89.6667 11.5,89C 14.2664,87.5331 16.7664,85.6998 19,83.5C 19.6667,80.8333 19.6667,78.1667 19,75.5C 15.9792,70.5236 15.8125,65.5236 18.5,60.5 Z"/></g>
<g><path style="opacity:0.908" fill="#dbca87" d="M 74.5,55.5 C 87.9325,54.981 92.7658,61.3143 89,74.5C 88.0168,76.4484 86.8502,78.2817 85.5,80C 88.4185,81.7088 91.2518,83.5421 94,85.5C 95.2525,88.0135 95.7525,90.6802 95.5,93.5C 84.8333,93.5 74.1667,93.5 63.5,93.5C 63.2475,90.6802 63.7475,88.0135 65,85.5C 67.7482,83.5421 70.5815,81.7088 73.5,80C 70.1319,76.5597 68.7986,72.393 69.5,67.5C 68.4781,62.2269 70.1448,58.2269 74.5,55.5 Z M 76.5,60.5 C 79.1667,61.1667 81.8333,61.8333 84.5,62.5C 83.9204,69.658 83.0871,76.658 82,83.5C 84.2336,85.6998 86.7336,87.5331 89.5,89C 82.8333,89.6667 76.1667,89.6667 69.5,89C 72.2664,87.5331 74.7664,85.6998 77,83.5C 77.6667,80.8333 77.6667,78.1667 77,75.5C 73.9792,70.5236 73.8125,65.5236 76.5,60.5 Z"/></g>
<g><path style="opacity:0.859" fill="#dbca86" d="M 34.5,75.5 C 44.834,79.4584 55.1673,79.4584 65.5,75.5C 66.8333,76.1667 67.8333,77.1667 68.5,78.5C 66.0831,81.0419 63.0831,82.5419 59.5,83C 53.5,83.6667 47.5,83.6667 41.5,83C 38.9999,82.6253 36.6666,81.7919 34.5,80.5C 33.3336,78.8327 33.3336,77.166 34.5,75.5 Z"/></g>
</svg>
