<?xml version="1.0" encoding="UTF-8"?>
<!DOCTYPE svg PUBLIC "-//W3C//DTD SVG 1.1//EN" "http://www.w3.org/Graphics/SVG/1.1/DTD/svg11.dtd">
<svg xmlns="http://www.w3.org/2000/svg" version="1.1" width="64px" height="64px" style="shape-rendering:geometricPrecision; text-rendering:geometricPrecision; image-rendering:optimizeQuality; fill-rule:evenodd; clip-rule:evenodd" xmlns:xlink="http://www.w3.org/1999/xlink">
<g><path style="opacity:0.937" fill="#fefffe" d="M 25.5,11.5 C 24.1667,11.5 22.8333,11.5 21.5,11.5C 21.5,10.1667 21.5,8.83333 21.5,7.5C 19.5,7.5 17.5,7.5 15.5,7.5C 15.5,6.16667 15.5,4.83333 15.5,3.5C 24.1731,3.33358 32.8397,3.50025 41.5,4C 44.3974,5.71547 45.7307,8.21547 45.5,11.5C 42.4007,11.9077 40.0674,10.741 38.5,8C 34.1794,7.50098 29.8461,7.33432 25.5,7.5C 25.5,8.83333 25.5,10.1667 25.5,11.5 Z"/></g>
<g><path style="opacity:0.991" fill="#d0d2d3" d="M 21.5,11.5 C 22.8333,11.5 24.1667,11.5 25.5,11.5C 27.5,11.5 29.5,11.5 31.5,11.5C 31.5,14.1667 31.5,16.8333 31.5,19.5C 26.1667,19.5 20.8333,19.5 15.5,19.5C 15.5,16.8333 15.5,14.1667 15.5,11.5C 17.5,11.5 19.5,11.5 21.5,11.5 Z"/></g>
<g><path style="opacity:0.917" fill="#dbca86" d="M 47.5,17.5 C 48.8734,17.3433 50.2068,17.51 51.5,18C 55.786,22.6246 56.4526,27.6246 53.5,33C 45,35.1667 41.8333,32 44,23.5C 45.3937,21.6125 46.5604,19.6125 47.5,17.5 Z"/></g>
<g><path style="opacity:0.989" fill="#dcca87" d="M 15.5,19.5 C 20.8333,19.5 26.1667,19.5 31.5,19.5C 34.7067,20.0256 37.2067,21.6923 39,24.5C 39.6667,35.5 39.6667,46.5 39,57.5C 38.5,58 38,58.5 37.5,59C 28.1667,59.6667 18.8333,59.6667 9.5,59C 9,58.5 8.5,58 8,57.5C 7.33333,46.5 7.33333,35.5 8,24.5C 9.79328,21.6923 12.2933,20.0256 15.5,19.5 Z"/></g>
<g><path style="opacity:1" fill="#fefefc" d="M 22.5,31.5 C 23.4959,31.4142 24.3292,31.7476 25,32.5C 25.4935,34.1341 25.6602,35.8008 25.5,37.5C 27.9775,37.0508 29.9775,37.7175 31.5,39.5C 29.9775,41.2825 27.9775,41.9492 25.5,41.5C 25.9492,43.9775 25.2825,45.9775 23.5,47.5C 21.7175,45.9775 21.0508,43.9775 21.5,41.5C 19.0225,41.9492 17.0225,41.2825 15.5,39.5C 17.0225,37.7175 19.0225,37.0508 21.5,37.5C 21.3253,35.3792 21.6586,33.3792 22.5,31.5 Z"/></g>
</svg>
