<?xml version="1.0" encoding="UTF-8"?>
<!DOCTYPE svg PUBLIC "-//W3C//DTD SVG 1.1//EN" "http://www.w3.org/Graphics/SVG/1.1/DTD/svg11.dtd">
<svg xmlns="http://www.w3.org/2000/svg" version="1.1" width="100px" height="100px" style="shape-rendering:geometricPrecision; text-rendering:geometricPrecision; image-rendering:optimizeQuality; fill-rule:evenodd; clip-rule:evenodd" xmlns:xlink="http://www.w3.org/1999/xlink">
<g><path style="opacity:0.838" fill="#dcca88" d="M 17.5,7.5 C 20.1667,7.5 22.8333,7.5 25.5,7.5C 25.7135,9.14387 25.3802,10.6439 24.5,12C 17.6825,12.8255 11.8491,15.6589 7,20.5C 6.04396,19.4214 5.21063,18.2547 4.5,17C 7.91692,12.3935 12.2502,9.22684 17.5,7.5 Z"/></g>
<g><path style="opacity:0.868" fill="#dcca87" d="M 46.5,9.5 C 57.1719,9.3335 67.8385,9.50016 78.5,10C 92.5174,11.986 97.3508,19.8193 93,33.5C 92.5,34 92,34.5 91.5,35C 85.1264,35.608 78.7931,35.2747 72.5,34C 69.8397,29.8168 66.8397,25.9834 63.5,22.5C 53.2573,21.6151 43.2573,22.9485 33.5,26.5C 32.1437,31.1136 30.4771,35.6136 28.5,40C 22.5195,43.3323 16.1861,44.999 9.5,45C 6.54902,41.0392 5.21568,36.5392 5.5,31.5C 4.75978,27.4119 6.09312,24.2453 9.5,22C 21.1367,15.5103 33.47,11.3437 46.5,9.5 Z M 62.5,13.5 C 70.7482,13.7107 78.7482,15.2107 86.5,18C 87,18.5 87.5,19 88,19.5C 88.2565,22.557 88.7565,25.557 89.5,28.5C 89.2907,29.086 88.9574,29.586 88.5,30C 83.7199,30.6527 79.0532,30.1527 74.5,28.5C 72.5,25.1667 70.5,21.8333 68.5,18.5C 55.1134,16.3125 42.1134,17.6458 29.5,22.5C 27.5481,26.6225 26.0481,30.9558 25,35.5C 20.7559,37.8727 16.2559,39.5393 11.5,40.5C 10.6324,36.1924 10.4657,31.859 11,27.5C 18.3534,22.2656 26.5201,18.7656 35.5,17C 44.5899,15.3699 53.5899,14.2033 62.5,13.5 Z"/></g>
<g><path style="opacity:0.919" fill="#dcc987" d="M 35.5,31.5 C 39.5,31.5 43.5,31.5 47.5,31.5C 47.5,33.5 47.5,35.5 47.5,37.5C 50.1667,37.5 52.8333,37.5 55.5,37.5C 55.5,35.5 55.5,33.5 55.5,31.5C 59.5,31.5 63.5,31.5 67.5,31.5C 67.3367,33.8568 67.5034,36.1902 68,38.5C 77.5565,46.3795 85.2231,55.7128 91,66.5C 91.886,74.6063 91.386,82.6063 89.5,90.5C 84.8804,91.4933 80.2137,91.8266 75.5,91.5C 75.5,90.1667 75.5,88.8333 75.5,87.5C 59.5,87.5 43.5,87.5 27.5,87.5C 27.5,88.8333 27.5,90.1667 27.5,91.5C 22.7863,91.8266 18.1196,91.4933 13.5,90.5C 10.0622,79.4163 10.8955,68.7497 16,58.5C 21.9681,51.5308 28.3014,44.8641 35,38.5C 35.4966,36.1902 35.6633,33.8568 35.5,31.5 Z M 39.5,35.5 C 40.8333,35.5 42.1667,35.5 43.5,35.5C 43.5,37.5 43.5,39.5 43.5,41.5C 48.8333,41.5 54.1667,41.5 59.5,41.5C 59.5,39.5 59.5,37.5 59.5,35.5C 60.8333,35.5 62.1667,35.5 63.5,35.5C 63.3379,37.5273 63.5045,39.5273 64,41.5C 72.0843,49.5799 79.4176,58.2466 86,67.5C 86.6095,74.1892 86.4428,80.8558 85.5,87.5C 83.5,87.5 81.5,87.5 79.5,87.5C 79.5,86.1667 79.5,84.8333 79.5,83.5C 60.8333,83.5 42.1667,83.5 23.5,83.5C 23.5,84.8333 23.5,86.1667 23.5,87.5C 21.5,87.5 19.5,87.5 17.5,87.5C 16.5572,80.8558 16.3905,74.1892 17,67.5C 23.5824,58.2466 30.9157,49.5799 39,41.5C 39.4955,39.5273 39.6621,37.5273 39.5,35.5 Z"/></g>
<g><path style="opacity:0.859" fill="#dcca89" d="M 73.5,37.5 C 76.7396,37.7678 79.9063,38.4345 83,39.5C 85.8954,37.8515 88.3954,38.1848 90.5,40.5C 88.822,42.8524 86.4887,44.1857 83.5,44.5C 79.2757,44.2495 75.609,42.7495 72.5,40C 73.2524,39.3292 73.5858,38.4959 73.5,37.5 Z"/></g>
<g><path style="opacity:1" fill="#dbca86" d="M 35.5,49.5 C 38.1667,49.5 40.8333,49.5 43.5,49.5C 43.5,50.8333 43.5,52.1667 43.5,53.5C 40.8333,53.5 38.1667,53.5 35.5,53.5C 35.5,52.1667 35.5,50.8333 35.5,49.5 Z"/></g>
<g><path style="opacity:1" fill="#dbca86" d="M 47.5,49.5 C 50.1667,49.5 52.8333,49.5 55.5,49.5C 55.5,50.8333 55.5,52.1667 55.5,53.5C 52.8333,53.5 50.1667,53.5 47.5,53.5C 47.5,52.1667 47.5,50.8333 47.5,49.5 Z"/></g>
<g><path style="opacity:1" fill="#dbca86" d="M 59.5,49.5 C 62.1667,49.5 64.8333,49.5 67.5,49.5C 67.5,50.8333 67.5,52.1667 67.5,53.5C 64.8333,53.5 62.1667,53.5 59.5,53.5C 59.5,52.1667 59.5,50.8333 59.5,49.5 Z"/></g>
<g><path style="opacity:1" fill="#dbca86" d="M 35.5,57.5 C 38.1667,57.5 40.8333,57.5 43.5,57.5C 43.5,58.8333 43.5,60.1667 43.5,61.5C 40.8333,61.5 38.1667,61.5 35.5,61.5C 35.5,60.1667 35.5,58.8333 35.5,57.5 Z"/></g>
<g><path style="opacity:1" fill="#dbca86" d="M 47.5,57.5 C 50.1667,57.5 52.8333,57.5 55.5,57.5C 55.5,58.8333 55.5,60.1667 55.5,61.5C 52.8333,61.5 50.1667,61.5 47.5,61.5C 47.5,60.1667 47.5,58.8333 47.5,57.5 Z"/></g>
<g><path style="opacity:1" fill="#dbca86" d="M 59.5,57.5 C 62.1667,57.5 64.8333,57.5 67.5,57.5C 67.5,58.8333 67.5,60.1667 67.5,61.5C 64.8333,61.5 62.1667,61.5 59.5,61.5C 59.5,60.1667 59.5,58.8333 59.5,57.5 Z"/></g>
<g><path style="opacity:1" fill="#dbca86" d="M 35.5,65.5 C 38.1667,65.5 40.8333,65.5 43.5,65.5C 43.5,66.8333 43.5,68.1667 43.5,69.5C 40.8333,69.5 38.1667,69.5 35.5,69.5C 35.5,68.1667 35.5,66.8333 35.5,65.5 Z"/></g>
<g><path style="opacity:1" fill="#dbca86" d="M 47.5,65.5 C 50.1667,65.5 52.8333,65.5 55.5,65.5C 55.5,66.8333 55.5,68.1667 55.5,69.5C 52.8333,69.5 50.1667,69.5 47.5,69.5C 47.5,68.1667 47.5,66.8333 47.5,65.5 Z"/></g>
<g><path style="opacity:1" fill="#dbca86" d="M 59.5,65.5 C 62.1667,65.5 64.8333,65.5 67.5,65.5C 67.5,66.8333 67.5,68.1667 67.5,69.5C 64.8333,69.5 62.1667,69.5 59.5,69.5C 59.5,68.1667 59.5,66.8333 59.5,65.5 Z"/></g>
</svg>
