<?xml version="1.0" encoding="UTF-8"?>
<!DOCTYPE svg PUBLIC "-//W3C//DTD SVG 1.1//EN" "http://www.w3.org/Graphics/SVG/1.1/DTD/svg11.dtd">
<svg xmlns="http://www.w3.org/2000/svg" version="1.1" width="100px" height="100px" style="shape-rendering:geometricPrecision; text-rendering:geometricPrecision; image-rendering:optimizeQuality; fill-rule:evenodd; clip-rule:evenodd" xmlns:xlink="http://www.w3.org/1999/xlink">
<g><path style="opacity:0.911" fill="#dcca87" d="M 29.5,-0.5 C 32.5,-0.5 35.5,-0.5 38.5,-0.5C 41.74,8.52439 43.9067,17.8577 45,27.5C 45.4999,42.1629 45.6666,56.8295 45.5,71.5C 51.7385,70.5356 56.2385,72.8689 59,78.5C 59.6667,83.1667 59.6667,87.8333 59,92.5C 57.3059,95.3576 55.1393,97.691 52.5,99.5C 49.1667,99.5 45.8333,99.5 42.5,99.5C 39.8607,97.691 37.6941,95.3576 36,92.5C 35.6667,85.1667 35.3333,77.8333 35,70.5C 34.3848,68.8839 33.3848,67.5505 32,66.5C 31.6667,75.1667 31.3333,83.8333 31,92.5C 29.3059,95.3576 27.1393,97.691 24.5,99.5C 21.1667,99.5 17.8333,99.5 14.5,99.5C 11.8607,97.691 9.69406,95.3576 8,92.5C 7.33333,87.8333 7.33333,83.1667 8,78.5C 10.7615,72.8689 15.2615,70.5356 21.5,71.5C 20.0592,48.5333 21.8926,25.8667 27,3.5C 27.6622,2.01608 28.4955,0.682751 29.5,-0.5 Z M 33.5,3.5 C 34.9663,4.347 35.7996,5.68034 36,7.5C 40.9501,30.2312 42.7835,53.2312 41.5,76.5C 53.8935,75.6116 57.7268,80.9449 53,92.5C 49.4703,96.064 45.8037,96.064 42,92.5C 41.0266,90.6079 40.3599,88.6079 40,86.5C 39.6667,79.8333 39.3333,73.1667 39,66.5C 38.5348,65.0692 37.7014,63.9025 36.5,63C 33.8333,62 31.1667,61 28.5,60C 27.2986,59.0975 26.4652,57.9308 26,56.5C 24.8273,38.2167 27.3273,20.5501 33.5,3.5 Z M 25.5,64.5 C 26.1174,64.6107 26.6174,64.944 27,65.5C 27.6667,72.8333 27.6667,80.1667 27,87.5C 25.1344,94.3469 20.9677,96.1803 14.5,93C 10.3961,87.4062 10.7294,82.0729 15.5,77C 18.8168,76.5017 22.1501,76.335 25.5,76.5C 25.5,72.5 25.5,68.5 25.5,64.5 Z"/></g>
<g><path style="opacity:0.984" fill="#dcca87" d="M 53.5,-0.5 C 64.5,-0.5 75.5,-0.5 86.5,-0.5C 88.1343,0.971672 89.6343,2.63834 91,4.5C 91.6667,34.5 91.6667,64.5 91,94.5C 89.975,96.687 88.475,98.3536 86.5,99.5C 83.8333,99.5 81.1667,99.5 78.5,99.5C 76.525,98.3536 75.025,96.687 74,94.5C 73.5001,82.8381 73.3335,71.1714 73.5,59.5C 66.825,59.6663 60.1583,59.4996 53.5,59C 52.1667,58 52.1667,57 53.5,56C 60.1583,55.5004 66.825,55.3337 73.5,55.5C 73.5,54.1667 73.5,52.8333 73.5,51.5C 66.825,51.6663 60.1583,51.4996 53.5,51C 52.1667,50 52.1667,49 53.5,48C 60.1583,47.5004 66.825,47.3337 73.5,47.5C 73.5,46.1667 73.5,44.8333 73.5,43.5C 66.825,43.6663 60.1583,43.4996 53.5,43C 52.1667,42 52.1667,41 53.5,40C 60.1583,39.5004 66.825,39.3337 73.5,39.5C 73.5,38.1667 73.5,36.8333 73.5,35.5C 66.825,35.6663 60.1583,35.4996 53.5,35C 52.1667,34 52.1667,33 53.5,32C 60.1583,31.5004 66.825,31.3337 73.5,31.5C 73.5,30.1667 73.5,28.8333 73.5,27.5C 66.825,27.6663 60.1583,27.4996 53.5,27C 52.1667,26 52.1667,25 53.5,24C 60.1583,23.5004 66.825,23.3337 73.5,23.5C 73.5,22.1667 73.5,20.8333 73.5,19.5C 66.825,19.6663 60.1583,19.4996 53.5,19C 52.1667,18 52.1667,17 53.5,16C 60.1583,15.5004 66.825,15.3337 73.5,15.5C 73.5,14.1667 73.5,12.8333 73.5,11.5C 66.825,11.6663 60.1583,11.4996 53.5,11C 52.1667,10 52.1667,9 53.5,8C 60.1583,7.50042 66.825,7.33375 73.5,7.5C 73.5,6.16667 73.5,4.83333 73.5,3.5C 66.825,3.66625 60.1583,3.49958 53.5,3C 52.3157,1.85453 52.3157,0.687867 53.5,-0.5 Z M 77.5,3.5 C 82.3623,3.04161 85.5289,5.04161 87,9.5C 87.6667,36.5 87.6667,63.5 87,90.5C 84,95.8333 81,95.8333 78,90.5C 77.5,61.5019 77.3334,32.5019 77.5,3.5 Z"/></g>
<g><path style="opacity:0.907" fill="#dbc986" d="M 30.5,47.5 C 37.1584,46.3445 39.1584,48.8445 36.5,55C 29.7496,56.4689 27.7496,53.9689 30.5,47.5 Z"/></g>
<g><path style="opacity:0.942" fill="#dbc986" d="M 16.5,79.5 C 18.7925,79.2436 20.9592,79.5769 23,80.5C 23.7886,84.0915 23.6219,87.5915 22.5,91C 20.2305,91.7581 18.0639,91.5914 16,90.5C 15.2446,86.7446 15.4113,83.0779 16.5,79.5 Z"/></g>
<g><path style="opacity:0.942" fill="#dbc986" d="M 44.5,79.5 C 46.7925,79.2436 48.9592,79.5769 51,80.5C 51.7886,84.0915 51.6219,87.5915 50.5,91C 48.2305,91.7581 46.0639,91.5914 44,90.5C 43.2446,86.7446 43.4113,83.0779 44.5,79.5 Z"/></g>
</svg>
