<?xml version="1.0" encoding="UTF-8"?>
<!DOCTYPE svg PUBLIC "-//W3C//DTD SVG 1.1//EN" "http://www.w3.org/Graphics/SVG/1.1/DTD/svg11.dtd">
<svg xmlns="http://www.w3.org/2000/svg" version="1.1" width="100px" height="100px" style="shape-rendering:geometricPrecision; text-rendering:geometricPrecision; image-rendering:optimizeQuality; fill-rule:evenodd; clip-rule:evenodd" xmlns:xlink="http://www.w3.org/1999/xlink">
<g><path style="opacity:0.961" fill="#dbca87" d="M 24.5,99.5 C 21.5,99.5 18.5,99.5 15.5,99.5C 15.4457,96.033 16.9457,93.3663 20,91.5C 21.0793,88.9373 21.5793,86.2706 21.5,83.5C 17.1539,83.6657 12.8206,83.499 8.5,83C 6.66667,81.8333 5.16667,80.3333 4,78.5C 3.33333,59.1667 3.33333,39.8333 4,20.5C 5.16667,18.6667 6.66667,17.1667 8.5,16C 35.8333,15.3333 63.1667,15.3333 90.5,16C 92.3333,17.1667 93.8333,18.6667 95,20.5C 95.6667,39.8333 95.6667,59.1667 95,78.5C 93.8333,80.3333 92.3333,81.8333 90.5,83C 74.1667,83.3333 57.8333,83.6667 41.5,84C 38.162,91.843 32.4953,97.0097 24.5,99.5 Z M 13.5,19.5 C 38.5649,19.0284 63.5649,19.5284 88.5,21C 89.8932,22.1711 90.7265,23.6711 91,25.5C 91.9569,42.5666 91.6236,59.5666 90,76.5C 88.8289,77.8932 87.3289,78.7265 85.5,79C 69.5,79.3333 53.5,79.6667 37.5,80C 35.0461,86.4545 30.7128,90.7878 24.5,93C 26.6063,88.9812 26.9396,84.8146 25.5,80.5C 20.4562,79.831 15.4562,78.9977 10.5,78C 9.10679,76.8289 8.27346,75.3289 8,73.5C 7.33333,57.5 7.33333,41.5 8,25.5C 8.6831,22.3212 10.5164,20.3212 13.5,19.5 Z"/></g>
<g><path style="opacity:0.869" fill="#dcc987" d="M 27.5,41.5 C 28.8333,41.5 30.1667,41.5 31.5,41.5C 31.3505,42.552 31.5172,43.552 32,44.5C 33.3561,43.6198 34.8561,43.2865 36.5,43.5C 36.7711,45.8211 36.1045,47.8211 34.5,49.5C 36.1045,51.1789 36.7711,53.1789 36.5,55.5C 34.8561,55.7135 33.3561,55.3802 32,54.5C 31.5172,55.448 31.3505,56.448 31.5,57.5C 30.1667,57.5 28.8333,57.5 27.5,57.5C 27.6495,56.448 27.4828,55.448 27,54.5C 25.6439,55.3802 24.1439,55.7135 22.5,55.5C 22.2289,53.1789 22.8955,51.1789 24.5,49.5C 22.8955,47.8211 22.2289,45.8211 22.5,43.5C 24.1439,43.2865 25.6439,43.6198 27,44.5C 27.4828,43.552 27.6495,42.552 27.5,41.5 Z"/></g>
<g><path style="opacity:0.869" fill="#dcc987" d="M 47.5,41.5 C 48.8333,41.5 50.1667,41.5 51.5,41.5C 51.3505,42.552 51.5172,43.552 52,44.5C 53.3561,43.6198 54.8561,43.2865 56.5,43.5C 56.7711,45.8211 56.1045,47.8211 54.5,49.5C 56.1045,51.1789 56.7711,53.1789 56.5,55.5C 54.8561,55.7135 53.3561,55.3802 52,54.5C 51.5172,55.448 51.3505,56.448 51.5,57.5C 50.1667,57.5 48.8333,57.5 47.5,57.5C 47.6495,56.448 47.4828,55.448 47,54.5C 45.6439,55.3802 44.1439,55.7135 42.5,55.5C 42.2289,53.1789 42.8955,51.1789 44.5,49.5C 42.8955,47.8211 42.2289,45.8211 42.5,43.5C 44.1439,43.2865 45.6439,43.6198 47,44.5C 47.4828,43.552 47.6495,42.552 47.5,41.5 Z"/></g>
<g><path style="opacity:0.869" fill="#dcc987" d="M 67.5,41.5 C 68.8333,41.5 70.1667,41.5 71.5,41.5C 71.3505,42.552 71.5172,43.552 72,44.5C 73.3561,43.6198 74.8561,43.2865 76.5,43.5C 76.7711,45.8211 76.1045,47.8211 74.5,49.5C 76.1045,51.1789 76.7711,53.1789 76.5,55.5C 74.8561,55.7135 73.3561,55.3802 72,54.5C 71.5172,55.448 71.3505,56.448 71.5,57.5C 70.1667,57.5 68.8333,57.5 67.5,57.5C 67.6495,56.448 67.4828,55.448 67,54.5C 65.6439,55.3802 64.1439,55.7135 62.5,55.5C 62.2289,53.1789 62.8955,51.1789 64.5,49.5C 62.8955,47.8211 62.2289,45.8211 62.5,43.5C 64.1439,43.2865 65.6439,43.6198 67,44.5C 67.4828,43.552 67.6495,42.552 67.5,41.5 Z"/></g>
</svg>
