<?xml version="1.0" encoding="UTF-8"?>
<!DOCTYPE svg PUBLIC "-//W3C//DTD SVG 1.1//EN" "http://www.w3.org/Graphics/SVG/1.1/DTD/svg11.dtd">
<svg xmlns="http://www.w3.org/2000/svg" version="1.1" width="100px" height="100px" style="shape-rendering:geometricPrecision; text-rendering:geometricPrecision; image-rendering:optimizeQuality; fill-rule:evenodd; clip-rule:evenodd" xmlns:xlink="http://www.w3.org/1999/xlink">
<g><path style="opacity:0.876" fill="#dcca88" d="M 41.5,3.5 C 70.4697,1.96934 83.6363,15.636 81,44.5C 75.1005,62.3046 66.1005,78.3046 54,92.5C 51,96.5 48,96.5 45,92.5C 32.8995,78.3046 23.8995,62.3046 18,44.5C 14.5451,24.0496 22.3785,10.383 41.5,3.5 Z M 42.5,8.5 C 59.053,6.35295 70.2197,13.0196 76,28.5C 77.3986,37.5942 76.0653,46.2609 72,54.5C 66.225,67.0716 58.725,78.4049 49.5,88.5C 37.3376,75.1866 28.5042,59.8533 23,42.5C 20.488,25.8441 26.988,14.5108 42.5,8.5 Z M 48.5,28.5 C 52.1894,30.0969 55.6894,32.0969 59,34.5C 59.499,38.8206 59.6657,43.1539 59.5,47.5C 57.5,47.5 55.5,47.5 53.5,47.5C 53.5,44.1667 53.5,40.8333 53.5,37.5C 50.8333,37.5 48.1667,37.5 45.5,37.5C 45.5,40.8333 45.5,44.1667 45.5,47.5C 43.5,47.5 41.5,47.5 39.5,47.5C 39.3343,43.1539 39.501,38.8206 40,34.5C 42.9877,32.6009 45.8211,30.6009 48.5,28.5 Z"/></g>
<g><path style="opacity:0.962" fill="#dcca87" d="M 48.5,22.5 C 54.8097,24.9867 60.4764,28.4867 65.5,33C 63.6652,38.9944 62.9985,45.1611 63.5,51.5C 54.1667,51.5 44.8333,51.5 35.5,51.5C 36.0015,45.1611 35.3348,38.9944 33.5,33C 38.3843,29.2738 43.3843,25.7738 48.5,22.5 Z M 48.5,28.5 C 45.8211,30.6009 42.9877,32.6009 40,34.5C 39.501,38.8206 39.3343,43.1539 39.5,47.5C 41.5,47.5 43.5,47.5 45.5,47.5C 45.5,44.1667 45.5,40.8333 45.5,37.5C 48.1667,37.5 50.8333,37.5 53.5,37.5C 53.5,40.8333 53.5,44.1667 53.5,47.5C 55.5,47.5 57.5,47.5 59.5,47.5C 59.6657,43.1539 59.499,38.8206 59,34.5C 55.6894,32.0969 52.1894,30.0969 48.5,28.5 Z"/></g>
</svg>
