<svg width="72" height="72" viewBox="0 0 72 72" fill="none" xmlns="http://www.w3.org/2000/svg">
<path d="M21.4799 50.7134C8.59075 37.8242 7.34756 21.4293 7.27103 16.7498L7.26757 16.538L7.41741 16.3881L15.0131 8.79239L15.3667 8.43884L15.7203 8.79239L25.517 18.5892L25.8706 18.9427L25.517 19.2963L20.6186 24.1947L20.6185 24.1948C20.232 24.581 19.9478 25.0575 19.7917 25.5811C19.6355 26.1047 19.6123 26.659 19.7241 27.1938L19.7241 27.194C19.766 27.3947 20.3376 30.0568 21.6772 33.4451C23.0192 36.8395 25.1165 40.9227 28.1916 43.9979C31.2668 47.0731 35.3501 49.1704 38.7445 50.5124C42.1327 51.8519 44.7949 52.4236 44.9956 52.4655L44.9986 52.4661C45.5323 52.5809 46.0864 52.5596 46.6098 52.404C47.1331 52.2485 47.609 51.9638 47.9934 51.5762L47.995 51.5746L52.8972 46.6762L53.2508 46.3229L53.6042 46.6763L63.401 56.4731L63.7546 56.8267L63.4009 57.1803L55.8014 64.776L55.4479 64.4224L55.4395 64.9223C50.6648 64.842 34.3271 63.5644 21.4799 50.7134ZM21.4799 50.7134L21.8335 50.3599L21.4799 50.7134ZM55.5752 39.3479L55.5754 39.3482L70.729 54.5056L70.7294 54.5059C71.035 54.811 71.2774 55.1733 71.4428 55.5722C71.6082 55.9711 71.6934 56.3986 71.6934 56.8304C71.6934 57.2623 71.6082 57.6898 71.4428 58.0887C71.2774 58.4876 71.035 58.8499 70.7294 59.155L70.729 59.1553L60.4549 69.4294C59.1155 70.7689 57.3517 71.503 55.4858 71.503H55.3841C50.0265 71.4122 31.4564 69.993 16.8302 55.3669C2.20067 40.7373 0.780547 22.1618 0.69412 16.8135C0.665946 14.9316 1.42234 13.0838 2.76773 11.7384L13.0419 1.46431L13.0422 1.46401C13.3472 1.15842 13.7096 0.915976 14.1084 0.75056C14.5073 0.585144 14.9349 0.5 15.3667 0.5C15.7985 0.5 16.2261 0.585144 16.625 0.75056C17.0238 0.915976 17.3862 1.15842 17.6912 1.46401L17.6915 1.46431L32.8451 16.6179L32.8454 16.6182C33.151 16.9233 33.3935 17.2856 33.5589 17.6845C33.7243 18.0833 33.8094 18.5109 33.8094 18.9427C33.8094 19.3745 33.7243 19.8021 33.5589 20.201C33.3935 20.5999 33.151 20.9622 32.8454 21.2673L32.8451 21.2676L26.8064 27.3063L26.5957 27.5169L26.6807 27.8025C27.517 30.6114 29.4392 35.9423 32.8451 39.3482C36.2511 42.7542 41.5819 44.6764 44.3909 45.5126L44.6764 45.5976L44.8871 45.3869L50.9258 39.3482L50.9261 39.3479C51.2312 39.0424 51.5935 38.7999 51.9924 38.6345C52.3913 38.4691 52.8188 38.3839 53.2506 38.3839C53.6824 38.3839 54.11 38.4691 54.5089 38.6345C54.9078 38.7999 55.2701 39.0424 55.5752 39.3479ZM62.6938 57.1801L62.6939 57.1802L63.0474 56.8267L62.694 56.473L62.6939 56.4731L53.2531 47.0323L53.2506 47.0299L48.3485 51.9283C47.9049 52.3755 47.356 52.7039 46.7522 52.8833C46.1484 53.0627 45.5092 53.0874 44.8934 52.9549L62.6938 57.1801Z" fill="#0C0C0C" stroke="black"/>
</svg>
